<svg xmlns="http://www.w3.org/2000/svg" width="88.371" height="64" viewBox="0 0 88.371 64"><g transform="translate(525 -123)"><path d="M1.633,0H4.37V-12.075h.069L11.914,0H14.95V-16.422H12.213v12.1h-.046l-7.5-12.1H1.633ZM19.389-6.992a3.107,3.107,0,0,1,3.128-3.151,3.11,3.11,0,0,1,2.99,3.151Zm8.74,1.725c.437-3.565-1.863-6.946-5.612-6.946-3.542,0-5.75,2.9-5.75,6.279,0,3.68,2.07,6.256,5.819,6.256a5.207,5.207,0,0,0,5.382-4.048H25.484a2.74,2.74,0,0,1-2.9,1.978c-2.185,0-3.2-1.656-3.2-3.519Zm.161-4.669h1.978v7.015C30.337-.943,30.8.115,33.557.115a14.145,14.145,0,0,0,1.7-.138V-2.047a4.479,4.479,0,0,1-1.1.092c-1.173,0-1.265-.552-1.265-1.633V-9.936h2.369v-1.955H32.89v-3.565H30.268v3.565H28.29Z" transform="translate(-471.888 175.195)"/><path d="M0,0H7.128V3.024H0Z" transform="translate(-483.316 165.542)"/><path d="M12.1,24.193A12.1,12.1,0,0,1,7.388.951a12.1,12.1,0,0,1,9.417,22.292A12.021,12.021,0,0,1,12.1,24.193Zm0-19.009A6.912,6.912,0,1,0,19.009,12.1,6.92,6.92,0,0,0,12.1,5.184Z" transform="translate(-501.803 129.48)" fill="#61bde1"/><path d="M6.48,12.961A6.482,6.482,0,0,1,3.958.509,6.482,6.482,0,0,1,9,12.451,6.44,6.44,0,0,1,6.48,12.961Zm0-10.183a3.7,3.7,0,1,0,3.7,3.7A3.707,3.707,0,0,0,6.48,2.777Z" transform="translate(-510.366 123)" fill="#61bde1"/><path d="M17.929,35.858A17.934,17.934,0,0,1,10.95,1.408,17.932,17.932,0,0,1,33.077,27.526L27.4,21.845a10.245,10.245,0,1,0-5.477,5.52l5.671,5.671a17.881,17.881,0,0,1-9.661,2.822Z" transform="translate(-525 149.307)" fill="#056eb9"/><rect width="25.489" height="6.048" rx="3.024" transform="translate(-491.26 187) rotate(-135)" fill="#0d97d0"/></g></svg>